<?xml version="1.0" encoding="utf-8"?>
<!-- Generator: Adobe Illustrator 22.1.0, SVG Export Plug-In . SVG Version: 6.00 Build 0)  -->
<svg version="1.1" id="Layer_1" xmlns="http://www.w3.org/2000/svg" xmlns:xlink="http://www.w3.org/1999/xlink" x="0px" y="0px"
	 viewBox="0 0 841.9 595.3" style="enable-background:new 0 0 841.9 595.3;" xml:space="preserve">
<style type="text/css">
	.st0{fill:#FFFFFF;}
</style>
<g>
	<path class="st0" d="M411.9,21.9c-148.1,0-268.1,120-268.1,268.1c0,148.1,120,268.1,268.1,268.1S680,438,680,290
		C680,141.9,560,21.9,411.9,21.9z M601.3,448.7h-58.8c-35.5,29.3-81,46.8-130.6,46.8c-49.6,0-95.1-17.6-130.6-46.8h-58.8
		c-18.5-26.2-36.7-56.3-46-89h41.9c-0.8-2.1-1.5-4.2-2.1-6.3c-0.6-1.9-1.2-3.9-1.8-5.9c-5.3-18.3-8.2-37.6-8.2-57.6
		c0-113.5,92-205.6,205.6-205.6c113.5,0,205.6,92.1,205.6,205.6c0,20-2.8,39.3-8.2,57.6c-0.6,2-1.2,3.9-1.8,5.9
		c-0.7,2.1-1.4,4.2-2.1,6.3h41.9C638,392.4,619.7,422.5,601.3,448.7z"/>
</g>
<g>
	<path class="st0" d="M277.1,383.7c-2.4,4.2-13.4,26.5-14,27.6c-1.6,3-3.7,3.6-4.7,3.6h-6.5c-2,0-3.1-1.4-1.9-4.2
		c0.3-0.8,10.9-22.1,13.4-26.7c1.1-2,2.6-3.3,5.6-3.3h6.7C277.7,380.8,278.2,381.8,277.1,383.7z"/>
	<path class="st0" d="M360.2,416.5l-6.1,11.1c-1.2,2.3-1.6,2.6-4.1,2.6c-1.2,0-1.9-0.3-0.6-2.8l1.7-2.8
		C352.8,421.6,358.3,418.2,360.2,416.5z"/>
	<path class="st0" d="M478.2,399.9c-2.4,4.2-5.1,10.1-5.8,11.4c-1.6,3-3.7,3.6-4.7,3.6h-6.6c-2,0-3.1-1.4-1.7-4.2
		c0.3-0.8,3-5.9,5.3-10.3c1.1-2,2.6-3.3,5.6-3.3h6.7C478.9,396.8,479.1,398,478.2,399.9z"/>
	<path class="st0" d="M482.5,383.7c-0.8,1.2-2.3,4.4-2.8,5.6c-1.2,2-3.3,2.5-4.2,2.5h-3.3c-2,0-2.5-1.4-1.2-4l1.9-3.7
		c0.9-2,1.4-3.3,3.3-3.3h5.1C483.3,380.6,483.1,382.5,482.5,383.7z"/>
	<path class="st0" d="M186.1,366.3c8.9,27.9,24.6,53.5,42.3,75.9h367c17.7-22.4,33.4-48,42.3-75.9H186.1z M595.2,398.3
		c0,0-8.3-0.5-11,1.8c-2.8,2.1-3.7,3.7-5,6.3c-1.1,2.6-4.5,9.6-7.4,11.5c-3,1.8-4.8,2.6-9.3,2.6h-10c-2,0-4.3,0-4.3,0h-24.8
		c-1.9,0-3.7,0-4.3-2c-1.4,1.1-3.9,2-6.5,2h-30.1c-2.6,0-3.6-0.9-4-2c-0.9,1.1-2.8,2-5.6,2h-58.5c-1.9,0-3.7,0-4.3-2
		c-1.4,1.1-3.9,2-6.5,2h-30.9c0,0-1.6,0-2.4-0.3c-0.9-0.5-1.4-1.7-1.4-1.7l-1.7,3.4l-3.4,6.3c-2,4.1-4.3,6.1-8.7,6.1h-10.2
		c-3.4-0.3-6.5-1.2-4-6.1l0.3-0.8l1.7-2.9c0.8-1.8,3.9-3.9,4.7-4h-44.3c-1.9,0-3.9,0-4.5-1.8c-1.2,1.5-3,1.8-5.4,1.8H274
		c-2.6,0-3.6-0.7-4-1.8c-0.9,1.1-2.8,1.8-5.6,1.8h-38.9l1.9-2.4h2.9c5.1-0.3,6.4-2.9,6.8-3.7l16.1-30.7c0.6-1.4,0.3-2.6-1.7-2.6
		h-2.6c-2.5,0-4-3.2-1.7-3.2h35.2c6,0,7.1,6,5.1,9.6l-5.3,10.1c-2.8,5.4-6.6,13-8,15.7c-0.8,2.1,0.3,4.7,2,4.7h15.5
		c2.1,0,5.9-2.3,9.6-4.2c0.5-0.3,1.1-0.6,1.7-0.9c4.2-2.5,9.2-6.2,14.4-11.4c2.3-2.1,0.9-3.2-0.8-3.2h-14.3c-1.8,0,1.6-6.1,3.1-6.1
		h22.9c3.7,0,5,4.7,1.7,7.9l-11.9,11.8c-2.2,2.1-0.5,2.8,0.3,2.8c0,0,3.4,0,6.5,0c1.7,0,2.4,0,3.2,0.5c1.5,1,1.1,2.9,3.7,2.9h15.7
		l1.7-1.1c-2.9,0-2.6-4.3-1.8-5.8l8.7-16.8c0.9-1.8,1.9-2.3,2.6-2.3h5.4c3.3,0,2.5,2.8,2,3.8c-2.3,4.7-7.5,14.5-8.1,15.6
		c-2.5,4.8,4,1.5,5.6-1.5c0.5-0.6,7.3-14.1,8.4-15.9c0.6-0.9,1.2-2,3-2h3.9c2.2,0,2.3,2.5,1.6,3.7l-3.4,6.6l-4.8,9.2
		c-0.4,0.7-0.7,1.4-0.9,2.1c-0.5,1.8,0.5,4.5,1.3,4.5h21.8c-1.1,0-2-1.5-1.1-3.4c0.4-0.8,1.4-2.9,1.7-3.7l9-17.1
		c0.9-1.8,1.9-1.8,2.6-1.8h5.4c3.3,0,2.5,2.5,2,3.5c-2.3,4.9-7.8,15-8.2,16.1c-2.6,4.7,3.6,1.5,5.3-1.5c0.5-0.8,7-12.8,8.1-14.8
		c0.6-0.9,1.6-3.2,3.3-3.2h5.9c2.2,0,2.5,2.5,1.7,3.7c-1.1,2.3-2.3,4.6-3.4,6.6c-1.7,3.5-3.9,7.3-4.8,9.2c-1.6,2.8,0.3,3.2,1.1,3.2
		c0,0,2.2-0.1,3,0.1c1.1,0.3,2.8,3.2,2.8,3.2h11.2c2.3,0,5.2-3.1,6.2-4.7c0.6-1.1,1-2,1.2-2.3c3-5.7,12.1-23.7,14-27.2
		c0.8-1.5,1.1-2.6-1.1-2.6h-2.6c-2.5,0-4-3.2-1.7-3.2h32.7c4.8,0,6.4,3.4,4.5,7l-2.5,4.9c-1.2,2.3-3.1,4-5.6,4
		c5.4,0.3,5.4,4,3.4,7.7c-0.6,0.9-1.1,2-1.7,3.1c-0.9,1.5-1.9,3.6-3,5.8c-0.2,0.5-1.1,2.4-1.4,2.8c-1.8,4.1,1,4.8,3.7,4.8h17.3
		c-1.9,0-1.6-2.6-1-3.9c0.5-1.1,1.1-2.3,1.6-3.4l8.9-16.9c0.9-1.8,1.8-1.8,2.6-1.8h5.4c3.3,0,2.5,2.4,2,3.5
		c-2.3,4.9-7.6,14.8-8.1,15.9c-2.5,4.7,3.7,1.5,5.4-1.5c0.5-0.8,6.9-12.7,7.9-14.6c0.6-0.9,1.6-3.2,3.3-3.2h5.9
		c2.2,0,2.5,2.4,1.7,3.7c-1.1,2.3-2.2,4.4-3.3,6.4c-1.7,3.5-3.9,7.4-4.8,9.2c-1.6,2.7,0.2,3.5,1,3.5c0,0,1,0,2,0c0.6,0,1.4,0,1.7,0
		c1.1,0.3,3.5,3.3,3.5,3.3h1.9c0,0,6.6,0,7.4,0c1.1,0,2.3,0,2.8-0.5c0.8-0.8,0.6-2.6,1.1-2.7c0.3-0.1,0.6-0.1,1.6-0.1
		c1.2-0.2,7.3-0.3,9.3-1.2c2.3-1.1,3.8-4.7,6-8.4c2.2-3.5,3-6.8,6.1-9c3.1-2.4,6.6-3.7,9.1-4c0.9-0.2,5.6-0.2,5.6-0.2h8.4
		c0,0,0.6,1.5-0.3,3.4C596.7,397.5,595.2,398.3,595.2,398.3z"/>
</g>
<g>
	<path class="st0" d="M517.6,176.9h-7.4l-9.7-14.9h-0.7c-1-17.9-1.8-31-1.9-32.2v-0.1c-0.2-4.6-4-8.3-8.6-8.3H334.6
		c-4.6,0-8.4,3.6-8.7,8.2l0,0.2c-0.1,1.2-0.9,14-1.9,31.7l-0.7,0.5l-9.7,14.9h-7.5c-1.6,0-2.9,1.3-2.9,2.9v21.4
		c0,1.6,1.3,2.9,2.9,2.9h7.9c1.6,0,2.9-1.3,2.9-2.9V180l6.3-7.1v0.7c-1.8,32.7-3.8,74.8-3.6,94.4c0.2,14,3.4,54.6,3.5,56.4l0.2,2.5
		h3.8v17.7c0,4.3,3.5,7.7,7.7,7.7h10.3c4.3,0,7.7-3.5,7.7-7.7V327h117.7v17.7c0,4.3,3.5,7.7,7.7,7.7h10.3c4.3,0,7.7-3.5,7.7-7.7V327
		h3.8l0.2-2.5c0.1-1.7,3.3-42.4,3.5-56.4c0.3-19.6-1.8-61.7-3.6-94.3v-0.9l6.3,7.1v21.2c0,1.6,1.3,2.9,2.9,2.9h7.9
		c1.6,0,2.9-1.3,2.9-2.9v-21.4C520.5,178.2,519.2,176.9,517.6,176.9z M335.7,347.4H335c-1.5,0-2.8-1.3-2.8-2.8v-15.5h3.5V347.4z
		 M348.2,344.7c0,1.5-1.3,2.8-2.8,2.8h-0.7v-18.3h3.5V344.7z M475.7,344.7v-15.5h3.5v18.3h-0.7C476.9,347.4,475.7,346.2,475.7,344.7
		z M491.6,344.7c0,1.5-1.3,2.8-2.8,2.8h-0.7v-18.3h3.5V344.7z M498.6,268c-0.2,11.8-2.6,44.2-3.3,53.5H493l-9.9-5.8H340.8l-9.9,5.8
		h-2.3c-0.7-9.3-3.2-41.6-3.3-53.5c-0.5-34.1,6.1-136.9,6.2-138l0-0.2c0.1-1.7,1.5-3,3.2-3h154.7c1.7,0,3,1.3,3.1,3v0.2
		C492.5,131.1,499,233.9,498.6,268z"/>
	<path class="st0" d="M482.3,313.4H341.5c-6,0-10.9-4.9-10.9-10.9V297c0-3.7,3-6.7,6.7-6.7h149.4c3.7,0,6.7,3,6.7,6.7v5.4
		C493.3,308.5,488.4,313.4,482.3,313.4z M337.2,295.8c-0.6,0-1.2,0.5-1.2,1.2v5.4c0,3,2.4,5.4,5.4,5.4h140.9c3,0,5.4-2.4,5.4-5.4
		V297c0-0.6-0.5-1.2-1.2-1.2H337.2z"/>
	<g>
		<rect x="339.9" y="113.2" class="st0" width="65.7" height="4.9"/>
		<rect x="418.2" y="113.2" class="st0" width="65.7" height="4.9"/>
	</g>
	<g>
		<path class="st0" d="M460.2,265.9v2.5c0,0.9-0.5,1.6-1.1,1.6h-94.3c-0.6,0-1.1-0.7-1.1-1.6v-2.5c0-0.9,0.5-1.6,1.1-1.6h94.3
			C459.7,264.3,460.2,265,460.2,265.9z"/>
		<path class="st0" d="M460.2,274.2v3.1c0,0.9-0.5,1.6-1.1,1.6h-94.3c-0.6,0-1.1-0.7-1.1-1.6v-3.1c0-0.9,0.5-1.6,1.1-1.6h94.3
			C459.7,272.5,460.2,273.3,460.2,274.2z"/>
	</g>
	<g>
		<circle class="st0" cx="340.8" cy="271.6" r="5.8"/>
		<circle class="st0" cx="354" cy="271.6" r="5.8"/>
		<circle class="st0" cx="469.8" cy="271.6" r="5.8"/>
		<circle class="st0" cx="483.1" cy="271.6" r="5.8"/>
	</g>
	<path class="st0" d="M488.4,254.9L488.4,254.9l0-25.8c0.9-0.4,1.6-1,2.3-1.7c1.7-1.8,2.6-4.3,2.5-6.8l-4-77.6
		c-0.4-6.9-5.7-12.3-12.1-12.3h-63.8v94.8h-2.7v-94.8h-63.8c-6.4,0-11.7,5.4-12.1,12.3l-4,77.6c-0.1,2.6,0.8,5.1,2.5,6.8
		c0.7,0.7,1.4,1.3,2.3,1.7v25.8h0c-4,0-7.3,3.3-7.3,7.3v19.1c0,3.9,3.2,7.1,7.1,7.1h76.8l2.5,0l74.3,0c3.9,0,7.1-3.2,7.1-7.1v-19.1
		C495.8,258.1,492.5,254.9,488.4,254.9z M418.8,136h58.3c3.5,0,6.4,3.1,6.6,7.1l4,77.6c0.1,1.1-0.3,2.1-1,2.8
		c-0.4,0.4-1,0.9-1.9,0.9h-30.4l-27.8-35.6v-20.4h-4.2V214h4.2v-16.9l23.7,27.2h-31.6V136z M410.6,228.9h2.7v0.9h42l4.3,5h3.1
		l-3.9-5h26v25H339.1v-25h26l-3.9,5h3.1l4.3-5h42V228.9z M340.2,143.1c0.2-4,3.1-7.1,6.6-7.1h58.3v88.4h-31.6l23.7-27.2V214h4.2
		v-45.6h-4.2v20.4l-27.8,35.6H339c-0.9,0-1.5-0.5-1.9-0.9c-0.7-0.7-1-1.7-1-2.8L340.2,143.1z M490.6,281.3c0,1-0.8,1.9-1.9,1.9
		l-76.8,0l-76.8,0c-1,0-1.9-0.9-1.9-1.9v-19.1c0-1.2,1-2.2,2.2-2.2h153c1.2,0,2.2,1,2.2,2.2V281.3z"/>
	<path class="st0" d="M359,250.3h-13v-2.9c0-0.6,0.5-1,1-1h11c0.6,0,1,0.5,1,1V250.3z"/>
	<path class="st0" d="M464.8,250.3h13v-2.9c0-0.6-0.5-1-1-1h-11c-0.6,0-1,0.5-1,1V250.3z"/>
	<path class="st0" d="M351.1,304.6h-9.9c-0.9,0-1.7-0.7-1.7-1.7v-3.3c0-0.9,0.7-1.7,1.7-1.7h9.9c0.9,0,1.7,0.7,1.7,1.7v3.3
		C352.8,303.9,352,304.6,351.1,304.6z"/>
	<path class="st0" d="M472.7,304.6h9.9c0.9,0,1.7-0.7,1.7-1.7v-3.3c0-0.9-0.7-1.7-1.7-1.7h-9.9c-0.9,0-1.7,0.7-1.7,1.7v3.3
		C471,303.9,471.8,304.6,472.7,304.6z"/>
</g>
</svg>
