<?xml version="1.0" encoding="utf-8"?>
<!-- Generator: Adobe Illustrator 22.1.0, SVG Export Plug-In . SVG Version: 6.00 Build 0)  -->
<svg version="1.1" id="Layer_1" xmlns="http://www.w3.org/2000/svg" xmlns:xlink="http://www.w3.org/1999/xlink" x="0px" y="0px"
	 viewBox="0 0 382.1 243" style="enable-background:new 0 0 382.1 243;" xml:space="preserve">
<style type="text/css">
	.st0{fill:none;stroke:#FFFFFF;stroke-width:3;stroke-miterlimit:10;}
	.st1{fill:#FFFFFF;}
	.st2{fill:none;stroke:#FFFFFF;stroke-width:1.1286;stroke-miterlimit:10;}
	.st3{fill:none;stroke:#FFFFFF;stroke-width:1.1286;stroke-linejoin:round;stroke-miterlimit:10;}
</style>
<path class="st0" d="M236.7,73.9c63.9,7.7,110.4,31.5,110.4,59.7c0,34.4-69.4,62.3-155,62.3c-85.6,0-155-27.9-155-62.3
	c0-28.2,46.5-52,110.4-59.7"/>
<path class="st0" d="M236.7,59c75.9,8.6,131.9,38.7,131.9,74.6c0,42.6-79,77.1-176.5,77.1S15.6,176.1,15.6,133.5
	c0-35.8,56-66,131.9-74.6"/>
<path class="st1" d="M304.7,135.8h-5.4c0,0-1.8-0.1-2.4,0c-1.6,0.2-4.1,1.1-6.1,2.7c-2,1.5-2.9,3.6-4.3,5.9c-1.4,2.4-2,4.7-3.5,5.4
	c-1.3,0.6-2.4,0.7-3.2,0.8c-0.6,0-0.8,0-1,0.1c-0.3,0.1-0.2,0.4-0.7,0.9c-0.3,0.3-1.1,0.3-1.8,0.3c-0.5,0-1,0-1,0h-1.2
	c0,0-1.8-1.2-2.5-1.4c-0.5-0.1-2.1,0-2.1,0c-0.5,0-1.7-0.3-0.7-2.1c0.6-1.2,2-3.7,3.1-6c0.7-1.3,1.5-2.8,2.2-4.3
	c0.5-0.8,0.3-2.4-1.1-2.4h-3.8c-1.1,0-1.7,1.5-2.1,2.1c-0.7,1.3-4.9,9.2-5.2,9.7c-1.1,2-5.1,4.1-3.5,1c0.3-0.7,3.8-7.3,5.3-10.5
	c0.3-0.7,0.8-2.3-1.3-2.3h-3.5c-0.5,0-1.1,0-1.7,1.2l-5.8,11.2c-0.7,1.6-2,3.8-1,3.8h-10.2c-1.1,0-1.8-1.7-1.3-3.1
	c0.9-1.8,1.7-3.5,2.4-4.7c0.4-0.7,0.7-1.4,1.1-2c1.3-2.4,1.3-4.8-2.2-5c1.6,0,2.8-1.1,3.6-2.6l1.6-3.2c1.2-2.4,0.2-4.6-2.9-4.6
	h-21.1c-1.5,0-0.5,2.1,1.1,2.1h1.7c1.4,0,1.2,0.7,0.7,1.7c-1.2,2.3-7.1,14.1-9,17.8c-0.3,0.5-1.5,3.8-3.9,3.8h-4.3
	c0,0-1.8-1.2-2.5-1.4c-0.5-0.1-2.1,0-2.1,0c-0.5,0-1.7-0.3-0.7-2.1c0.6-1.2,2-3.7,3.1-6c0.7-1.3,1.5-2.8,2.2-4.3
	c0.5-0.8,0.3-2.4-1.1-2.4h-3.8c-1.1,0-1.7,1.5-2.1,2.1c-0.7,1.3-4.9,9.2-5.2,9.7c-1.1,2-5.1,4.1-3.4,1c0.3-0.7,3.8-7.3,5.3-10.5
	c0.3-0.7,0.8-2.3-1.3-2.3h-3.5c-0.5,0-1.1,0-1.7,1.2l-5.8,11.2c-0.7,1.6-2,3.8-1,3.8h-13.1c-0.7,0-0.6-1.8,0.3-3.5l3.1-6l2.2-4.3
	c0.5-0.8,0.4-2.4-1-2.4h-2.5c-1.1,0-1.5,0.7-1.9,1.3c-0.7,1.2-5.1,10-5.4,10.4c-1,2-5.2,4.1-3.6,1c0.4-0.7,3.7-7.1,5.2-10.2
	c0.3-0.7,0.8-2.5-1.3-2.5h-3.5c-0.5,0-1.1,0.3-1.7,1.5l-5.6,11c-0.5,1-0.7,3.8,1.2,3.8h-10.4c-0.6-0.6-1.1-1.2-1.6-1.4
	c-1.5-0.7-6.8,0-6.8,0c-0.5,0-1.6-0.5-0.2-1.9l7.7-7.7c2.1-2.1,1.3-5.2-1.1-5.2h-14.8c-1,0-3.2,4-2,4h9.2c1.1,0,2,0.7,0.5,2.1
	C130.1,149,124,152,120.9,152h-9c-1.1,0-1.8-1.7-1.3-3.1c0.9-1.8,2.9-5.9,4.7-9.4l3.4-6.6c1.3-2.4,0.6-6.3-3.3-6.3H92.7
	c-1.5,0-0.5,2.1,1.1,2.1h1.7c1.3,0,1.5,0.8,1.1,1.7l-9.9,19.2c-0.3,0.5-1.1,2.2-4.4,2.4h-2.8l0.1,2.6h24.2c1.8,0,3-0.6,3.6-1.3
	c0.3,0.7,0.9,1.3,2.6,1.3h11.4c1.6,0,2.7-0.3,3.5-1.3c0.4,1.2,1.6,1.3,2.8,1.3h27.6c-0.5,0.1-2.4,1.3-2.9,2.5l-1.1,1.9l-0.2,0.5
	c-1.6,3.2,0.4,3.8,2.6,4h6.6c2.8,0,4.3-1.3,5.6-4l2.2-4.1l1.1-2.2c0,0,0.3,0.8,0.9,1.1c0.5,0.2,2,0.2,2,0.2h18.5
	c1.7,0,3.3-0.6,4.2-1.3c0.4,1.3,1.6,1.3,2.8,1.3h34.8c1.8,0,3-0.6,3.6-1.3c0.3,0.7,0.9,1.3,2.6,1.3h18.4c1.7,0,3.3-0.6,4.2-1.3
	c0.4,1.3,1.6,1.3,2.8,1.3h13.1c0,0,0.6,0,1.9,0h2.5c2.9,0,5.2-0.5,7.1-1.7c1.9-1.2,4.1-5.8,4.8-7.5c0.8-1.7,1.8-3.3,3.6-4.7
	c1.8-1.5,5.9-0.9,5.9-0.9s0.7-0.6,1.6-1.7C305.1,136.8,304.7,135.8,304.7,135.8z M103.5,148.3c-1,1.9-2.4,2.3-3,2.3h-4.2
	c-1.3,0-2-0.9-1.2-2.7c0.2-0.5,7-14.1,8.6-17c0.7-1.3,1.7-2.1,3.6-2.1h4.3c1.3,0,1.6,0.7,0.9,1.9C111,133.4,103.9,147.6,103.5,148.3
	z M159.9,158.9c-0.8,1.5-1,1.7-2.6,1.7c-0.8,0-1.2-0.2-0.4-1.8l1.1-1.8c1.1-2,3.7-2.5,4.9-3.6L159.9,158.9z M235.6,141.1
	c-1.5,2.7-3.3,6.5-3.7,7.3c-1,1.9-2.4,2.3-3,2.3h-4.2c-1.3,0-2-0.9-1.1-2.7c0.2-0.5,1.9-3.8,3.4-6.6c0.7-1.3,1.7-2.1,3.6-2.1h4.3
	C236.1,139.1,236.2,139.9,235.6,141.1z M238.4,130.7c-0.5,0.8-1.5,2.8-1.8,3.6c-0.8,1.3-2.1,1.6-2.7,1.6h-2.1
	c-1.3,0-1.6-0.9-0.8-2.6l1.2-2.4c0.6-1.3,0.9-2.1,2.1-2.1h3.3C238.9,128.7,238.8,129.9,238.4,130.7z"/>
<g>
	<path class="st2" d="M211,85.2v0.7c0,0.2-0.2,0.4-0.4,0.4h-36.9c-0.2,0-0.4-0.2-0.4-0.4v-0.7c0-0.2,0.2-0.4,0.4-0.4h36.9
		C210.8,84.7,211,84.9,211,85.2z"/>
	<path class="st2" d="M211,88.4v0.9c0,0.2-0.2,0.4-0.4,0.4h-36.9c-0.2,0-0.4-0.2-0.4-0.4v-0.9c0-0.2,0.2-0.4,0.4-0.4h36.9
		C210.8,88,211,88.2,211,88.4z"/>
	<polygon class="st3" points="225.2,106.3 159,106.3 164.6,103 219.6,103 	"/>
	<path class="st2" d="M226.6,84.7c-0.1,5.4-1.4,21.6-1.4,21.6H159c0,0-1.3-16.2-1.4-21.6c-0.2-13.3,2.4-53.1,2.4-53.1v0
		c0.1-1.2,1.1-2.2,2.3-2.2H222c1.2,0,2.2,1,2.3,2.2v0C224.3,31.6,226.8,71.4,226.6,84.7z"/>
	<path class="st2" d="M167.5,96.6H164c-0.4,0-0.8-0.4-0.8-0.8v-0.9c0-0.4,0.4-0.8,0.8-0.8h3.5c0.4,0,0.8,0.4,0.8,0.8v0.9
		C168.3,96.3,168,96.6,167.5,96.6z"/>
	<circle class="st2" cx="164.2" cy="87.1" r="2.1"/>
	<circle class="st2" cx="169.8" cy="87.1" r="2.1"/>
	<circle class="st2" cx="214.8" cy="87.1" r="2.1"/>
	<circle class="st2" cx="220.3" cy="87.1" r="2.1"/>
	<path class="st2" d="M223.5,83.3v7.4c0,1-0.8,1.7-1.7,1.7l-29.6,0v0h-29.6c-1,0-1.7-0.8-1.7-1.7v-7.4c0-1,0.8-1.8,1.8-1.8h59.1
		C222.7,81.5,223.5,82.3,223.5,83.3z"/>
	<rect x="163.3" y="69.2" class="st2" width="57.6" height="12.3"/>
	<path class="st2" d="M170.7,77.8h-5v-1c0-0.3,0.2-0.5,0.5-0.5h4c0.3,0,0.5,0.2,0.5,0.5V77.8z"/>
	<path class="st2" d="M191.4,67.5h-28.7c-1.3,0-2.4-1.1-2.3-2.5l1.7-29.4c0.1-2.1,1.8-3.7,3.9-3.7h25.5V67.5z"/>
	<rect x="161.3" y="106.3" class="st2" width="4.5" height="9"/>
	<path class="st2" d="M164.9,115.3H162c-1.4,0-2.6-1.2-2.6-2.6v-6.4h8v6.4C167.5,114.1,166.3,115.3,164.9,115.3z"/>
	<rect x="187.2" y="48.8" class="st2" width="0.4" height="14.4"/>
	<line class="st2" x1="187.4" y1="56" x2="174.4" y2="71.2"/>
	<line class="st2" x1="187.2" y1="58.9" x2="174.9" y2="71.5"/>
	<polygon class="st2" points="159.2,49.4 157.9,49.4 157.9,44.7 159.4,44.7 	"/>
	<path class="st2" d="M155.7,59.6h-1.6c-0.8,0-1.4-0.6-1.4-1.4v-6.4c0-0.8,0.6-1.4,1.4-1.4h1.6c0.8,0,1.4,0.6,1.4,1.4v6.4
		C157.1,59,156.5,59.6,155.7,59.6z"/>
	<line class="st2" x1="157.9" y1="48.2" x2="156.1" y2="50.4"/>
	<line class="st2" x1="157.9" y1="47" x2="154.7" y2="50.4"/>
	<rect x="165" y="26.7" class="st2" width="12.7" height="2.7"/>
	<rect x="189.2" y="26.7" class="st2" width="5.7" height="2.7"/>
	<path class="st2" d="M216.7,96.6h3.5c0.4,0,0.8-0.4,0.8-0.8v-0.9c0-0.4-0.4-0.8-0.8-0.8h-3.5c-0.4,0-0.8,0.4-0.8,0.8v0.9
		C215.9,96.3,216.2,96.6,216.7,96.6z"/>
	<path class="st2" d="M224.8,93.4v4.1c0,0-0.2,0.9-0.6,1.3c-0.5,0.5-2.3,0.8-2.3,0.8l-29.8,0h-29.8c0,0-1.8-0.3-2.3-0.8
		c-0.4-0.4-0.6-1.3-0.6-1.3v-4.1c0,0,0.2-0.6,0.4-0.8c0.3-0.3,1.1-0.2,1.1-0.2h31.2v0l31.2,0c0,0,0.8,0,1.1,0.2
		C224.6,92.8,224.8,93.4,224.8,93.4z"/>
	<path class="st2" d="M213.5,77.8h5v-1c0-0.3-0.2-0.5-0.5-0.5h-4c-0.3,0-0.5,0.2-0.5,0.5V77.8z"/>
	<path class="st2" d="M192.9,67.5h28.7c1.3,0,2.4-1.1,2.3-2.5l-1.7-29.4c-0.1-2.1-1.8-3.7-3.9-3.7h-25.5V67.5z"/>
	
		<rect x="218.4" y="106.3" transform="matrix(-1 -4.571022e-11 4.571022e-11 -1 441.3801 221.5629)" class="st2" width="4.5" height="9"/>
	<path class="st2" d="M219.3,115.3h2.9c1.4,0,2.6-1.2,2.6-2.6v-6.4h-8v6.4C216.7,114.1,217.9,115.3,219.3,115.3z"/>
	
		<rect x="196.7" y="48.8" transform="matrix(-1 -4.835211e-11 4.835211e-11 -1 393.7265 112.0659)" class="st2" width="0.4" height="14.4"/>
	<line class="st2" x1="196.9" y1="56" x2="209.8" y2="71.2"/>
	<line class="st2" x1="197.1" y1="58.9" x2="209.4" y2="71.5"/>
	<polygon class="st2" points="225.1,49.4 226.3,49.4 226.3,44.7 224.8,44.7 	"/>
	<path class="st2" d="M228.5,59.6h1.6c0.8,0,1.4-0.6,1.4-1.4v-6.4c0-0.8-0.6-1.4-1.4-1.4h-1.6c-0.8,0-1.4,0.6-1.4,1.4v6.4
		C227.1,59,227.8,59.6,228.5,59.6z"/>
	<line class="st2" x1="226.3" y1="48.2" x2="228.1" y2="50.4"/>
	<line class="st2" x1="226.3" y1="47" x2="229.5" y2="50.4"/>
	
		<rect x="206.5" y="26.7" transform="matrix(-1 -4.481938e-11 4.481938e-11 -1 425.7503 56.1535)" class="st2" width="12.7" height="2.7"/>
</g>
<rect x="81.3" y="117.3" class="st1" width="221.7" height="3.8"/>
<rect x="81.3" y="167.9" class="st1" width="221.7" height="3.8"/>
</svg>
